<svg xmlns="http://www.w3.org/2000/svg" viewBox="0 0 250 75">
  <path fill="#555" id="squiggle" d="M12 19.778C12 1.318 36.745-6.008 54.219 5.556c8.913 5.898 16.498 21.96 17.028 36.162.047 1.243.041 2.458-.016 3.642l-.024.41.485.132c6.082 1.634 11.768 2.9 16.315 3.61l.586.09c5.018.746 10.426 1.091 15.846 1.082l1.241-.009-.175-.216c-5.34-6.67-8.374-14.234-8.5-21.288L97 28.712c0-17.914 11.128-24.145 33.419-21.816 20.311 2.122 30.088 20.755 22.159 36.496-3.407 6.763-12.924 11.075-26.427 13.395l-.386.064.5.26c7.795 3.986 17.234 6.242 27.999 6.34l.736.003c7.47 0 12.604-2.367 16.657-7.101l.363-.431c2.922-3.54 4.959-7.632 8.263-15.958l1.487-3.786c3.53-8.983 5.894-13.9 9.46-18.657C196.01 11.14 202.088 6.918 210.058 5c17.363-4.179 28.412 6.79 32.24 25.786.224 1.117.421 2.252.59 3.397l.048.337.214.01c1.84.073 3.669.117 5.488.131l1.362.006v7.94c-1.817 0-3.644-.027-5.48-.084l-.888-.03.004.119c.366 11.224-1.754 21.867-5.821 25.652l-.181.163c-9.839 8.545-20.88 8.82-35.619.459-18.22-10.335-5.375-40.825 15.68-37.137 5.313.931 10.547 1.639 15.704 2.124l1.36.123-.145-.82-.161-.832c-3.048-15.125-10.496-22.518-22.51-19.627-6.078 1.463-10.587 4.596-14.295 9.543l-.405.55c-2.735 3.786-4.788 8.074-7.798 15.69l-1.083 2.762c-4.15 10.598-6.524 15.462-10.609 20.233-5.57 6.505-12.93 9.9-22.753 9.9-16.603 0-30.714-4.653-41.213-12.816l-.399-.314-.894.057c-8.445.501-17.051.247-24.233-.746l-.854-.122c-4.71-.702-10.583-1.978-16.88-3.642l-.695-.185-.068.22C66.356 64.55 57.219 71.217 42.596 71.393l-.596.003c-12.942 0-18.604-5.695-20.82-16.46l-.248-1.299c-.069-.381-.13-.744-.228-1.35l-.352-2.19c-.842-5.087-1.48-6.296-3.01-6.548l-.655-.103c-3.604-.529-8.965-.813-16.023-.835l-.667-.001.006-7.941 1.433.004c7.527.044 13.246.385 17.222 1.043 3.58.592 6.114 2.65 7.634 5.814l.205.44c.786 1.761 1.206 3.533 1.732 6.73l.545 3.353.126.69.129.657C30.526 60.722 33.352 63.454 42 63.454c11.048 0 17.56-4.226 20.075-11.764l.08-.248-.02-.005c-6.241-1.881-12.573-4.043-18.347-6.323l-.784-.312C23.514 37.002 12 28.946 12 19.778zm204.305 19.793c-12.522-2.194-20.467 16.666-10.32 22.421l.867.484c11.452 6.288 18.614 5.969 25.514-.025.33-.286.91-1.346 1.45-2.991.64-1.954 1.152-4.486 1.474-7.35.337-2.995.453-6.193.342-9.41l-.027-.667-.805-.063a204.58 204.58 0 01-17.052-2.152l-1.443-.247zM129.58 14.793l-1.075-.107C111.166 13.043 105 16.735 105 28.712c0 6.8 3.921 14.786 10.896 21.225l.204.185.254-.023c14.007-1.36 26.081-5.004 28.933-10.007l.135-.251c5.47-10.858-1.172-23.515-15.84-25.048zm-79.8-2.63C36.983 3.693 20 8.721 20 19.778c0 4.32 9.802 11.178 25.996 17.66 5.25 2.101 11.031 4.11 16.777 5.886l.505.155v-.267c0-.263-.005-.529-.012-.797l-.013-.404c-.442-11.828-6.897-25.497-13.472-29.848z"/>
</svg>